<svg width="426" height="272" viewBox="0 0 426 272" fill="none" xmlns="http://www.w3.org/2000/svg">
<g opacity="0.1">
<mask id="mask0_499_814" style="mask-type:alpha" maskUnits="userSpaceOnUse" x="0" y="0" width="426" height="272">
<rect width="425.977" height="272" rx="20" fill="#D9D9D9"/>
</mask>
<g mask="url(#mask0_499_814)">
<path d="M550.153 361.901C516.564 432.275 445.001 480.935 362.292 480.935C247.491 480.935 154.051 387.138 154.051 271.835C154.051 156.533 247.44 62.6843 362.241 62.6843C444.639 62.6843 516.048 111.034 549.74 180.993C558.563 183.169 566.922 186.589 574.558 191.098C542.104 105.074 459.138 43.7695 362.241 43.7695C237.069 43.7695 135.219 146.065 135.219 271.784C135.219 397.502 237.069 499.798 362.241 499.798C459.448 499.798 542.569 438.13 574.868 351.64C567.231 356.149 558.924 359.673 550.102 361.849L550.153 361.901Z" fill="#255FFF"/>
<path d="M504.501 361.69C474.731 409.107 422.103 440.614 362.303 440.614C269.637 440.614 194.204 364.851 194.204 271.78C194.204 178.709 269.585 102.998 362.252 102.998C421.793 102.998 474.215 134.298 504.089 181.352C510.538 179.642 517.297 178.605 524.263 178.398C491.964 122.068 431.442 84.1348 362.2 84.1348C259.214 84.083 175.371 168.293 175.371 271.78C175.371 375.267 259.214 459.477 362.252 459.477C431.7 459.477 492.428 421.181 524.624 364.592C517.658 364.333 510.899 363.4 504.45 361.69H504.501Z" fill="#779DD8"/>
<path d="M468.53 343.243C445.519 377.6 406.46 400.298 362.243 400.298C291.659 400.298 234.285 342.673 234.285 271.781C234.285 200.889 291.659 143.264 362.243 143.264C406.306 143.264 445.209 165.754 468.272 199.905C473.071 195.914 478.282 192.339 483.803 189.333C457.386 150.156 412.755 124.349 362.243 124.349C281.34 124.349 215.504 190.473 215.504 271.729C215.504 352.985 281.34 419.109 362.243 419.109C413.013 419.109 457.798 393.095 484.112 353.659C478.54 350.705 473.277 347.181 468.479 343.191L468.53 343.243Z" fill="#ACC8FF"/>
</g>
</g>
</svg>
